<?xml version="1.0" encoding="utf-8" standalone="no"?>
<!DOCTYPE svg PUBLIC "-//W3C//DTD SVG 1.1//EN"
  "http://www.w3.org/Graphics/SVG/1.1/DTD/svg11.dtd">
<svg xmlns:xlink="http://www.w3.org/1999/xlink" width="460.8pt" height="345.6pt" viewBox="0 0 460.8 345.6" xmlns="http://www.w3.org/2000/svg" version="1.1">
 <metadata>
  <rdf:RDF xmlns:dc="http://purl.org/dc/elements/1.1/" xmlns:cc="http://creativecommons.org/ns#" xmlns:rdf="http://www.w3.org/1999/02/22-rdf-syntax-ns#">
   <cc:Work>
    <dc:type rdf:resource="http://purl.org/dc/dcmitype/StillImage"/>
    <dc:date>2024-07-24T13:23:55.279171</dc:date>
    <dc:format>image/svg+xml</dc:format>
    <dc:creator>
     <cc:Agent>
      <dc:title>Matplotlib v3.9.1, https://matplotlib.org/</dc:title>
     </cc:Agent>
    </dc:creator>
   </cc:Work>
  </rdf:RDF>
 </metadata>
 <defs>
  <style type="text/css">*{stroke-linejoin: round; stroke-linecap: butt}</style>
 </defs>
 <g id="figure_1">
  <g id="patch_1">
   <path d="M 0 345.6 
L 460.8 345.6 
L 460.8 0 
L 0 0 
z
" style="fill: #ffffff"/>
  </g>
  <g id="axes_1">
   <g id="patch_2">
    <path d="M 57.6 307.584 
L 414.72 307.584 
L 414.72 41.472 
L 57.6 41.472 
z
" style="fill: #ffffff"/>
   </g>
   <g id="matplotlib.axis_1">
    <g id="xtick_1">
     <g id="line2d_1">
      <defs>
       <path id="m3ee2134982" d="M 0 0 
L 0 3.5 
" style="stroke: #000000; stroke-width: 0.8"/>
      </defs>
      <g>
       <use xlink:href="#m3ee2134982" x="73.832727" y="307.584" style="stroke: #000000; stroke-width: 0.8"/>
      </g>
     </g>
     <g id="text_1">
      <!-- 0 -->
      <g transform="translate(71.332727 321.459) scale(0.1 -0.1)">
       <defs>
        <path id="SimHei-30" d="M 225 2537 
Q 250 3200 412 3587 
Q 575 3975 875 4225 
Q 1175 4475 1612 4475 
Q 2050 4475 2375 4112 
Q 2700 3750 2800 3200 
Q 2900 2650 2862 1937 
Q 2825 1225 2612 775 
Q 2400 325 1975 150 
Q 1550 -25 1125 187 
Q 700 400 525 750 
Q 350 1100 275 1487 
Q 200 1875 225 2537 
z
M 750 2687 
Q 675 2000 800 1462 
Q 925 925 1212 700 
Q 1500 475 1800 612 
Q 2100 750 2237 1162 
Q 2375 1575 2375 2062 
Q 2375 2550 2337 2950 
Q 2300 3350 2112 3675 
Q 1925 4000 1612 4012 
Q 1300 4025 1062 3700 
Q 825 3375 750 2687 
z
" transform="scale(0.015625)"/>
       </defs>
       <use xlink:href="#SimHei-30"/>
      </g>
     </g>
    </g>
    <g id="xtick_2">
     <g id="line2d_2">
      <g>
       <use xlink:href="#m3ee2134982" x="129.807649" y="307.584" style="stroke: #000000; stroke-width: 0.8"/>
      </g>
     </g>
     <g id="text_2">
      <!-- 5 -->
      <g transform="translate(127.307649 321.459) scale(0.1 -0.1)">
       <defs>
        <path id="SimHei-35" d="M 550 1325 
Q 725 650 1150 575 
Q 1575 500 1837 662 
Q 2100 825 2212 1087 
Q 2325 1350 2312 1675 
Q 2300 2000 2137 2225 
Q 1975 2450 1725 2525 
Q 1475 2600 1162 2525 
Q 850 2450 650 2175 
L 225 2225 
Q 275 2375 700 4375 
L 2675 4375 
L 2675 3925 
L 1075 3925 
Q 950 3250 825 2850 
Q 1200 3025 1525 3012 
Q 1850 3000 2150 2862 
Q 2450 2725 2587 2487 
Q 2725 2250 2787 2012 
Q 2850 1775 2837 1500 
Q 2825 1225 2725 937 
Q 2625 650 2425 462 
Q 2225 275 1937 162 
Q 1650 50 1275 75 
Q 900 100 562 350 
Q 225 600 100 1200 
L 550 1325 
z
" transform="scale(0.015625)"/>
       </defs>
       <use xlink:href="#SimHei-35"/>
      </g>
     </g>
    </g>
    <g id="xtick_3">
     <g id="line2d_3">
      <g>
       <use xlink:href="#m3ee2134982" x="185.782571" y="307.584" style="stroke: #000000; stroke-width: 0.8"/>
      </g>
     </g>
     <g id="text_3">
      <!-- 10 -->
      <g transform="translate(180.782571 321.459) scale(0.1 -0.1)">
       <defs>
        <path id="SimHei-31" d="M 1400 3600 
Q 1075 3275 575 2975 
L 575 3450 
Q 1200 3875 1600 4450 
L 1900 4450 
L 1900 150 
L 1400 150 
L 1400 3600 
z
" transform="scale(0.015625)"/>
       </defs>
       <use xlink:href="#SimHei-31"/>
       <use xlink:href="#SimHei-30" x="50"/>
      </g>
     </g>
    </g>
    <g id="xtick_4">
     <g id="line2d_4">
      <g>
       <use xlink:href="#m3ee2134982" x="241.757492" y="307.584" style="stroke: #000000; stroke-width: 0.8"/>
      </g>
     </g>
     <g id="text_4">
      <!-- 15 -->
      <g transform="translate(236.757492 321.459) scale(0.1 -0.1)">
       <use xlink:href="#SimHei-31"/>
       <use xlink:href="#SimHei-35" x="50"/>
      </g>
     </g>
    </g>
    <g id="xtick_5">
     <g id="line2d_5">
      <g>
       <use xlink:href="#m3ee2134982" x="297.732414" y="307.584" style="stroke: #000000; stroke-width: 0.8"/>
      </g>
     </g>
     <g id="text_5">
      <!-- 20 -->
      <g transform="translate(292.732414 321.459) scale(0.1 -0.1)">
       <defs>
        <path id="SimHei-32" d="M 300 250 
Q 325 625 650 925 
Q 975 1225 1475 1862 
Q 1975 2500 2125 2850 
Q 2275 3200 2237 3450 
Q 2200 3700 2000 3862 
Q 1800 4025 1537 4000 
Q 1275 3975 1037 3800 
Q 800 3625 675 3275 
L 200 3350 
Q 400 3925 712 4187 
Q 1025 4450 1450 4475 
Q 1700 4500 1900 4462 
Q 2100 4425 2312 4287 
Q 2525 4150 2662 3875 
Q 2800 3600 2762 3212 
Q 2725 2825 2375 2287 
Q 2025 1750 1025 600 
L 2825 600 
L 2825 150 
L 300 150 
L 300 250 
z
" transform="scale(0.015625)"/>
       </defs>
       <use xlink:href="#SimHei-32"/>
       <use xlink:href="#SimHei-30" x="50"/>
      </g>
     </g>
    </g>
    <g id="xtick_6">
     <g id="line2d_6">
      <g>
       <use xlink:href="#m3ee2134982" x="353.707335" y="307.584" style="stroke: #000000; stroke-width: 0.8"/>
      </g>
     </g>
     <g id="text_6">
      <!-- 25 -->
      <g transform="translate(348.707335 321.459) scale(0.1 -0.1)">
       <use xlink:href="#SimHei-32"/>
       <use xlink:href="#SimHei-35" x="50"/>
      </g>
     </g>
    </g>
    <g id="xtick_7">
     <g id="line2d_7">
      <g>
       <use xlink:href="#m3ee2134982" x="409.682257" y="307.584" style="stroke: #000000; stroke-width: 0.8"/>
      </g>
     </g>
     <g id="text_7">
      <!-- 30 -->
      <g transform="translate(404.682257 321.459) scale(0.1 -0.1)">
       <defs>
        <path id="SimHei-33" d="M 250 1225 
L 700 1300 
Q 800 975 1025 762 
Q 1250 550 1587 562 
Q 1925 575 2125 837 
Q 2325 1100 2300 1437 
Q 2275 1775 2037 1962 
Q 1800 2150 1275 2225 
L 1275 2550 
Q 1800 2600 2037 2825 
Q 2275 3050 2250 3412 
Q 2225 3775 1925 3937 
Q 1625 4100 1287 3975 
Q 950 3850 750 3275 
L 300 3350 
Q 450 3800 712 4100 
Q 975 4400 1425 4450 
Q 1875 4500 2212 4337 
Q 2550 4175 2687 3837 
Q 2825 3500 2725 3100 
Q 2625 2700 2150 2400 
Q 2500 2250 2687 1950 
Q 2875 1650 2812 1162 
Q 2750 675 2375 375 
Q 2000 75 1525 87 
Q 1050 100 700 387 
Q 350 675 250 1225 
z
" transform="scale(0.015625)"/>
       </defs>
       <use xlink:href="#SimHei-33"/>
       <use xlink:href="#SimHei-30" x="50"/>
      </g>
     </g>
    </g>
    <g id="text_8">
     <!-- 迭代次数 -->
     <g transform="translate(216.16 334.67775) scale(0.1 -0.1)">
      <defs>
       <path id="SimHei-8fed" d="M 3900 1875 
Q 3600 1350 3287 1012 
Q 2975 675 2450 275 
Q 2350 475 2025 700 
Q 2600 975 3012 1425 
Q 3425 1875 3600 2450 
Q 2350 2450 1950 2425 
L 1950 2900 
Q 2375 2875 3675 2875 
Q 3725 3250 3750 3775 
L 2800 3775 
Q 2675 3450 2550 3175 
Q 2300 3300 2075 3350 
Q 2275 3675 2425 4112 
Q 2575 4550 2700 5100 
Q 2850 5000 3225 4925 
Q 3075 4725 2950 4200 
L 3750 4200 
Q 3750 4850 3700 5250 
L 4275 5225 
Q 4225 4925 4200 4200 
L 4950 4200 
Q 5175 4200 5575 4225 
L 5575 3725 
Q 5175 3775 4875 3775 
L 4200 3775 
Q 4175 3250 4125 2875 
L 5150 2875 
Q 5475 2875 5925 2900 
L 5925 2425 
Q 5475 2450 5075 2450 
L 4100 2450 
L 4050 2300 
Q 4650 1775 5725 700 
Q 5600 650 5275 300 
Q 4775 975 3900 1875 
z
M 1550 2950 
L 1550 625 
Q 2200 -25 3712 -12 
Q 5225 0 6125 100 
Q 5950 -225 5900 -475 
L 3575 -475 
Q 2975 -475 2525 -387 
Q 2075 -300 1725 -50 
Q 1375 200 1162 12 
Q 950 -175 650 -550 
Q 500 -350 250 -175 
Q 775 275 1075 575 
L 1075 2525 
Q 750 2525 350 2500 
L 350 2975 
Q 775 2950 1075 2950 
L 1550 2950 
z
M 1125 5025 
Q 1525 4275 1675 3900 
Q 1450 3875 1175 3650 
Q 950 4275 650 4750 
Q 900 4850 1125 5025 
z
" transform="scale(0.015625)"/>
       <path id="SimHei-4ee3" d="M 3300 2950 
Q 3175 4575 3150 5100 
Q 3300 5075 3725 5025 
Q 3675 4725 3800 3050 
Q 5000 3275 5650 3475 
L 5775 3000 
Q 5500 2975 3850 2625 
Q 4150 1050 4737 450 
Q 5325 -150 5412 125 
Q 5500 400 5525 725 
Q 5800 550 6075 500 
Q 5900 -200 5737 -425 
Q 5575 -650 5137 -500 
Q 4700 -350 4187 300 
Q 3675 950 3350 2525 
Q 2400 2325 2175 2250 
L 2025 2725 
Q 2425 2775 3300 2950 
z
M 2250 4975 
Q 2100 4725 1700 3650 
L 1700 475 
Q 1700 -50 1725 -600 
L 1200 -600 
Q 1225 -50 1225 475 
L 1225 2750 
Q 850 2150 600 1850 
Q 450 2050 225 2225 
Q 625 2600 1050 3425 
Q 1475 4250 1675 5200 
Q 2050 5025 2250 4975 
z
M 4700 4875 
Q 5150 4325 5325 4050 
Q 5100 3900 4875 3725 
Q 4650 4150 4300 4575 
Q 4500 4700 4700 4875 
z
" transform="scale(0.015625)"/>
       <path id="SimHei-6b21" d="M 4150 3025 
Q 4000 2550 4050 2187 
Q 4100 1825 4275 1450 
Q 4450 1075 4800 750 
Q 5150 425 5475 212 
Q 5800 0 6150 -150 
Q 5875 -350 5750 -625 
Q 5250 -325 4887 -25 
Q 4525 275 4275 612 
Q 4025 950 3825 1425 
Q 3525 625 2950 125 
Q 2375 -375 1850 -650 
Q 1675 -400 1475 -225 
Q 2025 0 2487 362 
Q 2950 725 3162 1100 
Q 3375 1475 3450 1825 
Q 3525 2175 3537 2400 
Q 3550 2625 3525 3125 
Q 3825 3050 4150 3025 
z
M 3700 4975 
Q 3625 4900 3475 4575 
Q 3325 4250 3250 4075 
L 5775 4075 
Q 5650 3725 5550 3362 
Q 5450 3000 5275 2500 
Q 5000 2575 4775 2600 
Q 5025 3350 5100 3650 
L 3100 3650 
Q 2975 3400 2812 3100 
Q 2650 2800 2425 2450 
Q 2275 2600 1975 2700 
Q 2300 3050 2625 3762 
Q 2950 4475 3125 5200 
Q 3450 5025 3700 4975 
z
M 2025 2000 
Q 1825 1675 1475 1087 
Q 1125 500 725 -200 
Q 500 -25 250 175 
Q 725 725 1037 1262 
Q 1350 1800 1575 2325 
Q 1750 2175 2025 2000 
z
M 900 4750 
Q 1725 3725 1950 3375 
Q 1750 3250 1500 3050 
Q 1250 3525 500 4425 
Q 700 4575 900 4750 
z
" transform="scale(0.015625)"/>
       <path id="SimHei-6570" d="M 4525 4925 
Q 4475 4800 4400 4587 
Q 4325 4375 4175 3825 
L 5325 3825 
Q 5575 3825 5925 3850 
L 5925 3400 
Q 5650 3425 5500 3425 
Q 5500 3025 5362 2162 
Q 5225 1300 4875 675 
Q 5125 375 5437 137 
Q 5750 -100 6025 -200 
Q 5725 -425 5625 -625 
Q 5325 -450 5075 -225 
Q 4825 0 4575 325 
Q 4300 25 3987 -187 
Q 3675 -400 3200 -650 
Q 3075 -425 2850 -300 
Q 3225 -150 3650 125 
Q 4075 400 4300 675 
Q 4125 1025 3962 1425 
Q 3800 1825 3675 2475 
Q 3600 2275 3425 1950 
Q 3250 2050 3000 2150 
Q 3400 2850 3650 3675 
Q 3900 4500 3975 5100 
Q 4275 4975 4525 4925 
z
M 2100 2250 
Q 2000 2150 1875 1925 
L 3250 1925 
Q 3100 1300 2725 675 
Q 3125 525 3350 400 
Q 3225 225 3125 25 
Q 2900 175 2450 325 
Q 1950 -225 725 -650 
Q 600 -375 400 -275 
Q 1575 0 2000 475 
Q 1300 650 850 775 
Q 1000 1000 1250 1525 
Q 1000 1525 425 1500 
L 425 1950 
Q 900 1925 1400 1925 
Q 1500 2150 1550 2425 
Q 1825 2325 2100 2250 
z
M 1775 3950 
Q 1775 4550 1750 5100 
L 2250 5100 
Q 2225 4575 2225 3950 
Q 3075 3950 3425 3975 
L 3425 3525 
Q 3075 3550 2225 3550 
Q 2225 2825 2250 2425 
L 1750 2425 
Q 1775 2775 1775 3300 
Q 1650 3100 1300 2787 
Q 950 2475 650 2300 
Q 525 2525 275 2625 
Q 500 2700 875 2975 
Q 1250 3250 1450 3550 
Q 950 3550 500 3525 
L 500 3975 
Q 925 3950 1775 3950 
z
M 3975 3175 
Q 4200 1700 4600 1125 
Q 4850 1700 4937 2287 
Q 5025 2875 5050 3425 
L 4075 3425 
L 3975 3175 
z
M 1450 1000 
Q 1750 925 2275 800 
Q 2475 1050 2650 1525 
L 1725 1525 
Q 1600 1275 1450 1000 
z
M 3325 4825 
Q 3200 4625 3125 4450 
Q 3050 4275 2925 4025 
Q 2725 4125 2525 4175 
Q 2725 4500 2900 5000 
Q 3150 4875 3325 4825 
z
M 2575 3375 
Q 2900 3050 3200 2725 
Q 3050 2600 2875 2425 
Q 2525 2850 2300 3100 
Q 2450 3225 2575 3375 
z
M 925 5000 
Q 1275 4650 1500 4300 
L 1125 4075 
Q 950 4425 600 4725 
Q 825 4875 925 5000 
z
" transform="scale(0.015625)"/>
      </defs>
      <use xlink:href="#SimHei-8fed"/>
      <use xlink:href="#SimHei-4ee3" x="100"/>
      <use xlink:href="#SimHei-6b21" x="200"/>
      <use xlink:href="#SimHei-6570" x="300"/>
     </g>
    </g>
   </g>
   <g id="matplotlib.axis_2">
    <g id="ytick_1">
     <g id="line2d_8">
      <defs>
       <path id="m037467222a" d="M 0 0 
L -3.5 0 
" style="stroke: #000000; stroke-width: 0.8"/>
      </defs>
      <g>
       <use xlink:href="#m037467222a" x="57.6" y="295.488" style="stroke: #000000; stroke-width: 0.8"/>
      </g>
     </g>
     <g id="text_9">
      <!-- 0 -->
      <g transform="translate(45.6 298.9255) scale(0.1 -0.1)">
       <use xlink:href="#SimHei-30"/>
      </g>
     </g>
    </g>
    <g id="ytick_2">
     <g id="line2d_9">
      <g>
       <use xlink:href="#m037467222a" x="57.6" y="245.906366" style="stroke: #000000; stroke-width: 0.8"/>
      </g>
     </g>
     <g id="text_10">
      <!-- 200 -->
      <g transform="translate(35.6 249.343866) scale(0.1 -0.1)">
       <use xlink:href="#SimHei-32"/>
       <use xlink:href="#SimHei-30" x="50"/>
       <use xlink:href="#SimHei-30" x="100"/>
      </g>
     </g>
    </g>
    <g id="ytick_3">
     <g id="line2d_10">
      <g>
       <use xlink:href="#m037467222a" x="57.6" y="196.324731" style="stroke: #000000; stroke-width: 0.8"/>
      </g>
     </g>
     <g id="text_11">
      <!-- 400 -->
      <g transform="translate(35.6 199.762231) scale(0.1 -0.1)">
       <defs>
        <path id="SimHei-34" d="M 2000 1100 
L 75 1100 
L 75 1525 
L 2100 4450 
L 2475 4450 
L 2475 1525 
L 3075 1525 
L 3075 1100 
L 2475 1100 
L 2475 150 
L 2000 150 
L 2000 1100 
z
M 2000 1525 
L 2000 3500 
L 600 1525 
L 2000 1525 
z
" transform="scale(0.015625)"/>
       </defs>
       <use xlink:href="#SimHei-34"/>
       <use xlink:href="#SimHei-30" x="50"/>
       <use xlink:href="#SimHei-30" x="100"/>
      </g>
     </g>
    </g>
    <g id="ytick_4">
     <g id="line2d_11">
      <g>
       <use xlink:href="#m037467222a" x="57.6" y="146.743097" style="stroke: #000000; stroke-width: 0.8"/>
      </g>
     </g>
     <g id="text_12">
      <!-- 600 -->
      <g transform="translate(35.6 150.180597) scale(0.1 -0.1)">
       <defs>
        <path id="SimHei-36" d="M 250 1612 
Q 275 1975 387 2225 
Q 500 2475 725 2850 
L 1750 4450 
L 2325 4450 
L 1275 2800 
Q 1950 2975 2350 2750 
Q 2750 2525 2887 2237 
Q 3025 1950 3037 1612 
Q 3050 1275 2937 950 
Q 2825 625 2537 362 
Q 2250 100 1737 75 
Q 1225 50 862 262 
Q 500 475 362 862 
Q 225 1250 250 1612 
z
M 1025 787 
Q 1250 550 1625 525 
Q 2000 500 2250 775 
Q 2500 1050 2500 1575 
Q 2500 2100 2187 2300 
Q 1875 2500 1487 2450 
Q 1100 2400 925 2075 
Q 750 1750 775 1387 
Q 800 1025 1025 787 
z
" transform="scale(0.015625)"/>
       </defs>
       <use xlink:href="#SimHei-36"/>
       <use xlink:href="#SimHei-30" x="50"/>
       <use xlink:href="#SimHei-30" x="100"/>
      </g>
     </g>
    </g>
    <g id="ytick_5">
     <g id="line2d_12">
      <g>
       <use xlink:href="#m037467222a" x="57.6" y="97.161462" style="stroke: #000000; stroke-width: 0.8"/>
      </g>
     </g>
     <g id="text_13">
      <!-- 800 -->
      <g transform="translate(35.6 100.598962) scale(0.1 -0.1)">
       <defs>
        <path id="SimHei-38" d="M 175 1375 
Q 175 1675 325 1962 
Q 475 2250 825 2425 
Q 525 2600 425 2812 
Q 325 3025 312 3300 
Q 300 3575 387 3775 
Q 475 3975 650 4150 
Q 825 4325 1037 4387 
Q 1250 4450 1500 4450 
Q 1750 4450 1950 4400 
Q 2150 4350 2375 4187 
Q 2600 4025 2700 3725 
Q 2800 3425 2687 3025 
Q 2575 2625 2100 2400 
Q 2525 2275 2700 2012 
Q 2875 1750 2875 1375 
Q 2875 1000 2762 775 
Q 2650 550 2512 400 
Q 2375 250 2137 162 
Q 1900 75 1537 75 
Q 1175 75 912 162 
Q 650 250 475 425 
Q 300 600 237 837 
Q 175 1075 175 1375 
z
M 687 1400 
Q 675 1100 787 875 
Q 900 650 1200 587 
Q 1500 525 1825 600 
Q 2150 675 2275 950 
Q 2400 1225 2362 1500 
Q 2325 1775 2050 1962 
Q 1775 2150 1450 2125 
Q 1125 2100 912 1900 
Q 700 1700 687 1400 
z
M 775 3350 
Q 775 3100 950 2875 
Q 1125 2650 1500 2650 
Q 1875 2650 2062 2875 
Q 2250 3100 2237 3412 
Q 2225 3725 2012 3875 
Q 1800 4025 1437 4000 
Q 1075 3975 925 3787 
Q 775 3600 775 3350 
z
" transform="scale(0.015625)"/>
       </defs>
       <use xlink:href="#SimHei-38"/>
       <use xlink:href="#SimHei-30" x="50"/>
       <use xlink:href="#SimHei-30" x="100"/>
      </g>
     </g>
    </g>
    <g id="ytick_6">
     <g id="line2d_13">
      <g>
       <use xlink:href="#m037467222a" x="57.6" y="47.579828" style="stroke: #000000; stroke-width: 0.8"/>
      </g>
     </g>
     <g id="text_14">
      <!-- 1000 -->
      <g transform="translate(30.6 51.017328) scale(0.1 -0.1)">
       <use xlink:href="#SimHei-31"/>
       <use xlink:href="#SimHei-30" x="50"/>
       <use xlink:href="#SimHei-30" x="100"/>
       <use xlink:href="#SimHei-30" x="150"/>
      </g>
     </g>
    </g>
    <g id="text_15">
     <!-- 适应度值 -->
     <g transform="translate(25.35 194.528) rotate(-90) scale(0.1 -0.1)">
      <defs>
       <path id="SimHei-9002" d="M 5500 4625 
Q 5175 4625 4125 4525 
L 4125 3600 
Q 5450 3600 5850 3625 
L 5850 3175 
Q 5450 3200 4125 3200 
L 4125 2475 
L 5425 2475 
Q 5400 1850 5400 1475 
Q 5400 1100 5425 450 
L 4950 450 
L 4950 750 
L 2900 750 
L 2900 425 
L 2425 425 
Q 2450 1050 2450 1450 
Q 2450 1850 2425 2475 
L 3675 2475 
L 3675 3200 
Q 2375 3200 1975 3175 
L 1975 3625 
Q 2300 3600 3675 3600 
L 3675 4475 
Q 3375 4450 2475 4350 
Q 2425 4575 2250 4775 
Q 3075 4775 3875 4875 
Q 4675 4975 5250 5125 
Q 5300 4950 5500 4625 
z
M 1625 2850 
Q 1600 2400 1600 1925 
L 1600 625 
Q 2250 75 3625 12 
Q 5000 -50 6025 150 
Q 5875 -125 5775 -450 
L 4100 -450 
Q 3475 -450 2937 -375 
Q 2400 -300 1912 -37 
Q 1425 225 1212 -12 
Q 1000 -250 775 -550 
Q 525 -350 325 -250 
Q 875 275 1150 475 
L 1150 2450 
Q 750 2450 400 2425 
L 400 2875 
Q 775 2850 1100 2850 
L 1625 2850 
z
M 4950 1150 
L 4950 2075 
L 2900 2075 
L 2900 1150 
L 4950 1150 
z
M 1025 4850 
Q 1450 4400 1775 3925 
Q 1475 3750 1375 3625 
Q 1100 4075 650 4550 
Q 875 4675 1025 4850 
z
" transform="scale(0.015625)"/>
       <path id="SimHei-5e94" d="M 3525 5275 
Q 3700 4825 3850 4400 
L 4750 4400 
Q 5275 4400 5850 4425 
L 5850 3975 
Q 5275 4000 4750 4000 
L 1475 4000 
Q 1475 2525 1425 1900 
Q 1375 1275 1237 625 
Q 1100 -25 750 -625 
Q 575 -400 300 -250 
Q 625 175 800 937 
Q 975 1700 1000 2575 
Q 1025 3450 1000 4400 
L 3250 4400 
Q 3175 4750 3000 5100 
Q 3250 5150 3525 5275 
z
M 5625 3125 
Q 5375 2575 5187 2050 
Q 5000 1525 4450 225 
L 5150 225 
Q 5500 225 5925 250 
L 5925 -275 
Q 5500 -250 5150 -250 
L 2475 -250 
Q 2050 -250 1450 -275 
L 1450 250 
Q 2025 225 2475 225 
L 3950 225 
Q 4325 1000 4612 1850 
Q 4900 2700 5025 3350 
Q 5350 3175 5625 3125 
z
M 2100 2850 
Q 2750 1825 3075 1050 
Q 2900 950 2650 800 
Q 2150 1925 1700 2575 
Q 1925 2750 2100 2850 
z
M 3300 3425 
Q 3800 2550 4175 1700 
Q 3950 1575 3700 1450 
Q 3400 2300 2900 3200 
Q 3100 3275 3300 3425 
z
" transform="scale(0.015625)"/>
       <path id="SimHei-5ea6" d="M 1750 1675 
Q 2450 1650 2875 1650 
L 5200 1650 
Q 4975 1250 4650 850 
Q 4325 450 4025 200 
Q 4350 50 4950 -50 
Q 5550 -150 6100 -150 
Q 5950 -300 5825 -650 
Q 5100 -550 4550 -412 
Q 4000 -275 3625 -100 
Q 3100 -325 2587 -462 
Q 2075 -600 1525 -675 
Q 1450 -475 1225 -250 
Q 1675 -250 2250 -125 
Q 2825 0 3250 200 
Q 2825 550 2400 1275 
L 1750 1250 
L 1750 1675 
z
M 2975 5075 
Q 3250 5150 3475 5250 
Q 3625 4975 3775 4525 
L 4700 4525 
Q 4975 4525 5700 4550 
L 5700 4100 
Q 5000 4125 4650 4125 
L 1375 4125 
Q 1375 3000 1350 2312 
Q 1325 1625 1212 950 
Q 1100 275 725 -525 
Q 500 -375 250 -300 
Q 650 400 762 1075 
Q 875 1750 887 2800 
Q 900 3850 875 4525 
L 3200 4525 
Q 3100 4850 2975 5075 
z
M 2475 3300 
Q 2475 3700 2450 3925 
L 2975 3925 
Q 2950 3725 2950 3300 
L 4300 3300 
Q 4300 3700 4275 3950 
L 4800 3950 
Q 4775 3650 4775 3300 
Q 5325 3300 5725 3325 
L 5725 2900 
Q 5350 2925 4775 2925 
Q 4775 2250 4800 1950 
L 2450 1950 
Q 2475 2350 2475 2925 
Q 2175 2925 1600 2900 
L 1600 3325 
Q 2175 3300 2475 3300 
z
M 4300 2350 
L 4300 2925 
L 2950 2925 
L 2950 2350 
L 4300 2350 
z
M 2875 1275 
Q 3200 775 3650 425 
Q 4025 700 4425 1275 
L 2900 1275 
L 2875 1275 
z
" transform="scale(0.015625)"/>
       <path id="SimHei-503c" d="M 3675 4450 
L 3675 5100 
Q 3975 5075 4350 5050 
Q 4225 4875 4200 4450 
L 5125 4450 
Q 5550 4450 5875 4475 
L 5875 4025 
Q 5525 4050 5125 4050 
L 4175 4050 
L 4125 3500 
L 5400 3500 
Q 5375 3200 5375 2700 
L 5375 150 
Q 5875 150 6100 175 
L 6100 -275 
Q 5775 -250 5200 -250 
L 2850 -250 
Q 2275 -250 1900 -275 
L 1900 175 
Q 2125 150 2600 150 
L 2600 2700 
Q 2600 3175 2575 3500 
L 3600 3500 
L 3650 4050 
L 3200 4050 
Q 2575 4050 2225 4025 
L 2225 4475 
Q 2550 4450 3200 4450 
L 3675 4450 
z
M 2225 4900 
Q 2025 4675 1650 3750 
L 1650 450 
Q 1650 -75 1675 -550 
L 1150 -550 
Q 1175 -125 1175 375 
L 1175 2950 
Q 875 2450 625 2150 
Q 425 2425 250 2575 
Q 500 2825 937 3537 
Q 1375 4250 1625 5150 
Q 1975 4975 2225 4900 
z
M 4925 2650 
L 4925 3150 
L 3075 3150 
L 3075 2650 
L 4925 2650 
z
M 4925 150 
L 4925 625 
L 3075 625 
L 3075 150 
L 4925 150 
z
M 4925 1000 
L 4925 1450 
L 3075 1450 
L 3075 1000 
L 4925 1000 
z
M 4925 1825 
L 4925 2275 
L 3075 2275 
L 3075 1825 
L 4925 1825 
z
" transform="scale(0.015625)"/>
      </defs>
      <use xlink:href="#SimHei-9002"/>
      <use xlink:href="#SimHei-5e94" x="100"/>
      <use xlink:href="#SimHei-5ea6" x="200"/>
      <use xlink:href="#SimHei-503c" x="300"/>
     </g>
    </g>
   </g>
   <g id="line2d_14">
    <path d="M 73.832727 288.52389 
L 85.027712 293.007489 
L 96.222696 293.007489 
L 107.41768 293.007489 
L 118.612665 293.007489 
L 129.807649 293.007489 
L 141.002633 293.007489 
L 152.197618 293.007489 
L 163.392602 293.007489 
L 174.587586 293.007489 
L 185.782571 293.007489 
L 196.977555 293.007489 
L 208.172539 295.422283 
L 219.367524 295.422283 
L 230.562508 295.422283 
L 241.757492 295.422283 
L 252.952476 295.487768 
L 264.147461 295.487768 
L 275.342445 295.487867 
L 286.537429 295.487867 
L 297.732414 295.487956 
L 308.927398 295.487964 
L 320.122382 295.487999 
L 331.317367 295.487999 
L 342.512351 295.488 
L 353.707335 295.488 
L 364.90232 295.488 
L 376.097304 295.488 
L 387.292288 295.488 
L 398.487273 295.488 
" clip-path="url(#p5c066b8918)" style="fill: none; stroke: #1f77b4; stroke-width: 1.5; stroke-linecap: square"/>
    <defs>
     <path id="ma7a93b2643" d="M 0 3 
C 0.795609 3 1.55874 2.683901 2.12132 2.12132 
C 2.683901 1.55874 3 0.795609 3 0 
C 3 -0.795609 2.683901 -1.55874 2.12132 -2.12132 
C 1.55874 -2.683901 0.795609 -3 0 -3 
C -0.795609 -3 -1.55874 -2.683901 -2.12132 -2.12132 
C -2.683901 -1.55874 -3 -0.795609 -3 0 
C -3 0.795609 -2.683901 1.55874 -2.12132 2.12132 
C -1.55874 2.683901 -0.795609 3 0 3 
z
" style="stroke: #1f77b4"/>
    </defs>
    <g clip-path="url(#p5c066b8918)">
     <use xlink:href="#ma7a93b2643" x="73.832727" y="288.52389" style="fill-opacity: 0; stroke: #1f77b4"/>
     <use xlink:href="#ma7a93b2643" x="85.027712" y="293.007489" style="fill-opacity: 0; stroke: #1f77b4"/>
     <use xlink:href="#ma7a93b2643" x="96.222696" y="293.007489" style="fill-opacity: 0; stroke: #1f77b4"/>
     <use xlink:href="#ma7a93b2643" x="107.41768" y="293.007489" style="fill-opacity: 0; stroke: #1f77b4"/>
     <use xlink:href="#ma7a93b2643" x="118.612665" y="293.007489" style="fill-opacity: 0; stroke: #1f77b4"/>
     <use xlink:href="#ma7a93b2643" x="129.807649" y="293.007489" style="fill-opacity: 0; stroke: #1f77b4"/>
     <use xlink:href="#ma7a93b2643" x="141.002633" y="293.007489" style="fill-opacity: 0; stroke: #1f77b4"/>
     <use xlink:href="#ma7a93b2643" x="152.197618" y="293.007489" style="fill-opacity: 0; stroke: #1f77b4"/>
     <use xlink:href="#ma7a93b2643" x="163.392602" y="293.007489" style="fill-opacity: 0; stroke: #1f77b4"/>
     <use xlink:href="#ma7a93b2643" x="174.587586" y="293.007489" style="fill-opacity: 0; stroke: #1f77b4"/>
     <use xlink:href="#ma7a93b2643" x="185.782571" y="293.007489" style="fill-opacity: 0; stroke: #1f77b4"/>
     <use xlink:href="#ma7a93b2643" x="196.977555" y="293.007489" style="fill-opacity: 0; stroke: #1f77b4"/>
     <use xlink:href="#ma7a93b2643" x="208.172539" y="295.422283" style="fill-opacity: 0; stroke: #1f77b4"/>
     <use xlink:href="#ma7a93b2643" x="219.367524" y="295.422283" style="fill-opacity: 0; stroke: #1f77b4"/>
     <use xlink:href="#ma7a93b2643" x="230.562508" y="295.422283" style="fill-opacity: 0; stroke: #1f77b4"/>
     <use xlink:href="#ma7a93b2643" x="241.757492" y="295.422283" style="fill-opacity: 0; stroke: #1f77b4"/>
     <use xlink:href="#ma7a93b2643" x="252.952476" y="295.487768" style="fill-opacity: 0; stroke: #1f77b4"/>
     <use xlink:href="#ma7a93b2643" x="264.147461" y="295.487768" style="fill-opacity: 0; stroke: #1f77b4"/>
     <use xlink:href="#ma7a93b2643" x="275.342445" y="295.487867" style="fill-opacity: 0; stroke: #1f77b4"/>
     <use xlink:href="#ma7a93b2643" x="286.537429" y="295.487867" style="fill-opacity: 0; stroke: #1f77b4"/>
     <use xlink:href="#ma7a93b2643" x="297.732414" y="295.487956" style="fill-opacity: 0; stroke: #1f77b4"/>
     <use xlink:href="#ma7a93b2643" x="308.927398" y="295.487964" style="fill-opacity: 0; stroke: #1f77b4"/>
     <use xlink:href="#ma7a93b2643" x="320.122382" y="295.487999" style="fill-opacity: 0; stroke: #1f77b4"/>
     <use xlink:href="#ma7a93b2643" x="331.317367" y="295.487999" style="fill-opacity: 0; stroke: #1f77b4"/>
     <use xlink:href="#ma7a93b2643" x="342.512351" y="295.488" style="fill-opacity: 0; stroke: #1f77b4"/>
     <use xlink:href="#ma7a93b2643" x="353.707335" y="295.488" style="fill-opacity: 0; stroke: #1f77b4"/>
     <use xlink:href="#ma7a93b2643" x="364.90232" y="295.488" style="fill-opacity: 0; stroke: #1f77b4"/>
     <use xlink:href="#ma7a93b2643" x="376.097304" y="295.488" style="fill-opacity: 0; stroke: #1f77b4"/>
     <use xlink:href="#ma7a93b2643" x="387.292288" y="295.488" style="fill-opacity: 0; stroke: #1f77b4"/>
     <use xlink:href="#ma7a93b2643" x="398.487273" y="295.488" style="fill-opacity: 0; stroke: #1f77b4"/>
    </g>
   </g>
   <g id="line2d_15">
    <path d="M 73.832727 266.056436 
L 85.027712 266.483371 
L 96.222696 266.687076 
L 107.41768 266.76182 
L 118.612665 266.765154 
L 129.807649 266.765154 
L 141.002633 266.765154 
L 152.197618 266.765154 
L 163.392602 266.765154 
L 174.587586 266.765154 
L 185.782571 266.765154 
L 196.977555 266.956561 
L 208.172539 267.245825 
L 219.367524 267.473556 
L 230.562508 267.653386 
L 241.757492 268.906061 
L 252.952476 274.015922 
L 264.147461 277.646868 
L 275.342445 280.259179 
L 286.537429 284.560649 
L 297.732414 287.698312 
L 308.927398 289.751498 
L 320.122382 291.101602 
L 331.317367 292.322941 
L 342.512351 293.616674 
L 353.707335 294.51973 
L 364.90232 295.062166 
L 376.097304 295.310973 
L 387.292288 295.435741 
L 398.487273 295.436634 
" clip-path="url(#p5c066b8918)" style="fill: none; stroke: #ff7f0e; stroke-width: 1.5; stroke-linecap: square"/>
    <defs>
     <path id="md5f0a755c2" d="M -3 3 
L 3 3 
L 3 -3 
L -3 -3 
z
" style="stroke: #ff7f0e; stroke-linejoin: miter"/>
    </defs>
    <g clip-path="url(#p5c066b8918)">
     <use xlink:href="#md5f0a755c2" x="73.832727" y="266.056436" style="fill-opacity: 0; stroke: #ff7f0e; stroke-linejoin: miter"/>
     <use xlink:href="#md5f0a755c2" x="85.027712" y="266.483371" style="fill-opacity: 0; stroke: #ff7f0e; stroke-linejoin: miter"/>
     <use xlink:href="#md5f0a755c2" x="96.222696" y="266.687076" style="fill-opacity: 0; stroke: #ff7f0e; stroke-linejoin: miter"/>
     <use xlink:href="#md5f0a755c2" x="107.41768" y="266.76182" style="fill-opacity: 0; stroke: #ff7f0e; stroke-linejoin: miter"/>
     <use xlink:href="#md5f0a755c2" x="118.612665" y="266.765154" style="fill-opacity: 0; stroke: #ff7f0e; stroke-linejoin: miter"/>
     <use xlink:href="#md5f0a755c2" x="129.807649" y="266.765154" style="fill-opacity: 0; stroke: #ff7f0e; stroke-linejoin: miter"/>
     <use xlink:href="#md5f0a755c2" x="141.002633" y="266.765154" style="fill-opacity: 0; stroke: #ff7f0e; stroke-linejoin: miter"/>
     <use xlink:href="#md5f0a755c2" x="152.197618" y="266.765154" style="fill-opacity: 0; stroke: #ff7f0e; stroke-linejoin: miter"/>
     <use xlink:href="#md5f0a755c2" x="163.392602" y="266.765154" style="fill-opacity: 0; stroke: #ff7f0e; stroke-linejoin: miter"/>
     <use xlink:href="#md5f0a755c2" x="174.587586" y="266.765154" style="fill-opacity: 0; stroke: #ff7f0e; stroke-linejoin: miter"/>
     <use xlink:href="#md5f0a755c2" x="185.782571" y="266.765154" style="fill-opacity: 0; stroke: #ff7f0e; stroke-linejoin: miter"/>
     <use xlink:href="#md5f0a755c2" x="196.977555" y="266.956561" style="fill-opacity: 0; stroke: #ff7f0e; stroke-linejoin: miter"/>
     <use xlink:href="#md5f0a755c2" x="208.172539" y="267.245825" style="fill-opacity: 0; stroke: #ff7f0e; stroke-linejoin: miter"/>
     <use xlink:href="#md5f0a755c2" x="219.367524" y="267.473556" style="fill-opacity: 0; stroke: #ff7f0e; stroke-linejoin: miter"/>
     <use xlink:href="#md5f0a755c2" x="230.562508" y="267.653386" style="fill-opacity: 0; stroke: #ff7f0e; stroke-linejoin: miter"/>
     <use xlink:href="#md5f0a755c2" x="241.757492" y="268.906061" style="fill-opacity: 0; stroke: #ff7f0e; stroke-linejoin: miter"/>
     <use xlink:href="#md5f0a755c2" x="252.952476" y="274.015922" style="fill-opacity: 0; stroke: #ff7f0e; stroke-linejoin: miter"/>
     <use xlink:href="#md5f0a755c2" x="264.147461" y="277.646868" style="fill-opacity: 0; stroke: #ff7f0e; stroke-linejoin: miter"/>
     <use xlink:href="#md5f0a755c2" x="275.342445" y="280.259179" style="fill-opacity: 0; stroke: #ff7f0e; stroke-linejoin: miter"/>
     <use xlink:href="#md5f0a755c2" x="286.537429" y="284.560649" style="fill-opacity: 0; stroke: #ff7f0e; stroke-linejoin: miter"/>
     <use xlink:href="#md5f0a755c2" x="297.732414" y="287.698312" style="fill-opacity: 0; stroke: #ff7f0e; stroke-linejoin: miter"/>
     <use xlink:href="#md5f0a755c2" x="308.927398" y="289.751498" style="fill-opacity: 0; stroke: #ff7f0e; stroke-linejoin: miter"/>
     <use xlink:href="#md5f0a755c2" x="320.122382" y="291.101602" style="fill-opacity: 0; stroke: #ff7f0e; stroke-linejoin: miter"/>
     <use xlink:href="#md5f0a755c2" x="331.317367" y="292.322941" style="fill-opacity: 0; stroke: #ff7f0e; stroke-linejoin: miter"/>
     <use xlink:href="#md5f0a755c2" x="342.512351" y="293.616674" style="fill-opacity: 0; stroke: #ff7f0e; stroke-linejoin: miter"/>
     <use xlink:href="#md5f0a755c2" x="353.707335" y="294.51973" style="fill-opacity: 0; stroke: #ff7f0e; stroke-linejoin: miter"/>
     <use xlink:href="#md5f0a755c2" x="364.90232" y="295.062166" style="fill-opacity: 0; stroke: #ff7f0e; stroke-linejoin: miter"/>
     <use xlink:href="#md5f0a755c2" x="376.097304" y="295.310973" style="fill-opacity: 0; stroke: #ff7f0e; stroke-linejoin: miter"/>
     <use xlink:href="#md5f0a755c2" x="387.292288" y="295.435741" style="fill-opacity: 0; stroke: #ff7f0e; stroke-linejoin: miter"/>
     <use xlink:href="#md5f0a755c2" x="398.487273" y="295.436634" style="fill-opacity: 0; stroke: #ff7f0e; stroke-linejoin: miter"/>
    </g>
   </g>
   <g id="line2d_16">
    <path d="M 73.832727 53.568 
L 85.027712 124.895743 
L 96.222696 124.895743 
L 107.41768 128.140215 
L 118.612665 151.95536 
L 129.807649 187.676647 
L 141.002633 187.676647 
L 152.197618 191.321433 
L 163.392602 191.321433 
L 174.587586 214.029222 
L 185.782571 214.029222 
L 196.977555 229.226409 
L 208.172539 232.737414 
L 219.367524 247.188096 
L 230.562508 247.188096 
L 241.757492 247.188096 
L 252.952476 256.664268 
L 264.147461 262.237652 
L 275.342445 270.725107 
L 286.537429 277.628 
L 297.732414 288.468634 
L 308.927398 288.468634 
L 320.122382 294.845625 
L 331.317367 294.845625 
L 342.512351 295.158943 
L 353.707335 295.378345 
L 364.90232 295.378345 
L 376.097304 295.378345 
L 387.292288 295.378345 
L 398.487273 295.403867 
" clip-path="url(#p5c066b8918)" style="fill: none; stroke: #2ca02c; stroke-width: 1.5; stroke-linecap: square"/>
    <defs>
     <path id="mf0c4237edb" d="M 0 -3 
L -3 3 
L 3 3 
z
" style="stroke: #2ca02c; stroke-linejoin: miter"/>
    </defs>
    <g clip-path="url(#p5c066b8918)">
     <use xlink:href="#mf0c4237edb" x="73.832727" y="53.568" style="fill-opacity: 0; stroke: #2ca02c; stroke-linejoin: miter"/>
     <use xlink:href="#mf0c4237edb" x="85.027712" y="124.895743" style="fill-opacity: 0; stroke: #2ca02c; stroke-linejoin: miter"/>
     <use xlink:href="#mf0c4237edb" x="96.222696" y="124.895743" style="fill-opacity: 0; stroke: #2ca02c; stroke-linejoin: miter"/>
     <use xlink:href="#mf0c4237edb" x="107.41768" y="128.140215" style="fill-opacity: 0; stroke: #2ca02c; stroke-linejoin: miter"/>
     <use xlink:href="#mf0c4237edb" x="118.612665" y="151.95536" style="fill-opacity: 0; stroke: #2ca02c; stroke-linejoin: miter"/>
     <use xlink:href="#mf0c4237edb" x="129.807649" y="187.676647" style="fill-opacity: 0; stroke: #2ca02c; stroke-linejoin: miter"/>
     <use xlink:href="#mf0c4237edb" x="141.002633" y="187.676647" style="fill-opacity: 0; stroke: #2ca02c; stroke-linejoin: miter"/>
     <use xlink:href="#mf0c4237edb" x="152.197618" y="191.321433" style="fill-opacity: 0; stroke: #2ca02c; stroke-linejoin: miter"/>
     <use xlink:href="#mf0c4237edb" x="163.392602" y="191.321433" style="fill-opacity: 0; stroke: #2ca02c; stroke-linejoin: miter"/>
     <use xlink:href="#mf0c4237edb" x="174.587586" y="214.029222" style="fill-opacity: 0; stroke: #2ca02c; stroke-linejoin: miter"/>
     <use xlink:href="#mf0c4237edb" x="185.782571" y="214.029222" style="fill-opacity: 0; stroke: #2ca02c; stroke-linejoin: miter"/>
     <use xlink:href="#mf0c4237edb" x="196.977555" y="229.226409" style="fill-opacity: 0; stroke: #2ca02c; stroke-linejoin: miter"/>
     <use xlink:href="#mf0c4237edb" x="208.172539" y="232.737414" style="fill-opacity: 0; stroke: #2ca02c; stroke-linejoin: miter"/>
     <use xlink:href="#mf0c4237edb" x="219.367524" y="247.188096" style="fill-opacity: 0; stroke: #2ca02c; stroke-linejoin: miter"/>
     <use xlink:href="#mf0c4237edb" x="230.562508" y="247.188096" style="fill-opacity: 0; stroke: #2ca02c; stroke-linejoin: miter"/>
     <use xlink:href="#mf0c4237edb" x="241.757492" y="247.188096" style="fill-opacity: 0; stroke: #2ca02c; stroke-linejoin: miter"/>
     <use xlink:href="#mf0c4237edb" x="252.952476" y="256.664268" style="fill-opacity: 0; stroke: #2ca02c; stroke-linejoin: miter"/>
     <use xlink:href="#mf0c4237edb" x="264.147461" y="262.237652" style="fill-opacity: 0; stroke: #2ca02c; stroke-linejoin: miter"/>
     <use xlink:href="#mf0c4237edb" x="275.342445" y="270.725107" style="fill-opacity: 0; stroke: #2ca02c; stroke-linejoin: miter"/>
     <use xlink:href="#mf0c4237edb" x="286.537429" y="277.628" style="fill-opacity: 0; stroke: #2ca02c; stroke-linejoin: miter"/>
     <use xlink:href="#mf0c4237edb" x="297.732414" y="288.468634" style="fill-opacity: 0; stroke: #2ca02c; stroke-linejoin: miter"/>
     <use xlink:href="#mf0c4237edb" x="308.927398" y="288.468634" style="fill-opacity: 0; stroke: #2ca02c; stroke-linejoin: miter"/>
     <use xlink:href="#mf0c4237edb" x="320.122382" y="294.845625" style="fill-opacity: 0; stroke: #2ca02c; stroke-linejoin: miter"/>
     <use xlink:href="#mf0c4237edb" x="331.317367" y="294.845625" style="fill-opacity: 0; stroke: #2ca02c; stroke-linejoin: miter"/>
     <use xlink:href="#mf0c4237edb" x="342.512351" y="295.158943" style="fill-opacity: 0; stroke: #2ca02c; stroke-linejoin: miter"/>
     <use xlink:href="#mf0c4237edb" x="353.707335" y="295.378345" style="fill-opacity: 0; stroke: #2ca02c; stroke-linejoin: miter"/>
     <use xlink:href="#mf0c4237edb" x="364.90232" y="295.378345" style="fill-opacity: 0; stroke: #2ca02c; stroke-linejoin: miter"/>
     <use xlink:href="#mf0c4237edb" x="376.097304" y="295.378345" style="fill-opacity: 0; stroke: #2ca02c; stroke-linejoin: miter"/>
     <use xlink:href="#mf0c4237edb" x="387.292288" y="295.378345" style="fill-opacity: 0; stroke: #2ca02c; stroke-linejoin: miter"/>
     <use xlink:href="#mf0c4237edb" x="398.487273" y="295.403867" style="fill-opacity: 0; stroke: #2ca02c; stroke-linejoin: miter"/>
    </g>
   </g>
   <g id="line2d_17">
    <path d="M 73.832727 295.479692 
L 85.027712 295.479692 
L 96.222696 295.479692 
L 107.41768 295.484555 
L 118.612665 295.484555 
L 129.807649 295.484555 
L 141.002633 295.484555 
L 152.197618 295.484555 
L 163.392602 295.484555 
L 174.587586 295.484555 
L 185.782571 295.484555 
L 196.977555 295.48748 
L 208.172539 295.48748 
L 219.367524 295.48748 
L 230.562508 295.48748 
L 241.757492 295.48748 
L 252.952476 295.48748 
L 264.147461 295.48748 
L 275.342445 295.48748 
L 286.537429 295.487841 
L 297.732414 295.487841 
L 308.927398 295.488 
L 320.122382 295.488 
L 331.317367 295.488 
L 342.512351 295.488 
L 353.707335 295.488 
L 364.90232 295.488 
L 376.097304 295.488 
L 387.292288 295.488 
L 398.487273 295.488 
" clip-path="url(#p5c066b8918)" style="fill: none; stroke: #d62728; stroke-width: 1.5; stroke-linecap: square"/>
    <defs>
     <path id="m3712e45483" d="M 0 -3 
L -0.673542 -0.927051 
L -2.85317 -0.927051 
L -1.089814 0.354102 
L -1.763356 2.427051 
L -0 1.145898 
L 1.763356 2.427051 
L 1.089814 0.354102 
L 2.85317 -0.927051 
L 0.673542 -0.927051 
z
" style="stroke: #d62728; stroke-linejoin: bevel"/>
    </defs>
    <g clip-path="url(#p5c066b8918)">
     <use xlink:href="#m3712e45483" x="73.832727" y="295.479692" style="fill-opacity: 0; stroke: #d62728; stroke-linejoin: bevel"/>
     <use xlink:href="#m3712e45483" x="85.027712" y="295.479692" style="fill-opacity: 0; stroke: #d62728; stroke-linejoin: bevel"/>
     <use xlink:href="#m3712e45483" x="96.222696" y="295.479692" style="fill-opacity: 0; stroke: #d62728; stroke-linejoin: bevel"/>
     <use xlink:href="#m3712e45483" x="107.41768" y="295.484555" style="fill-opacity: 0; stroke: #d62728; stroke-linejoin: bevel"/>
     <use xlink:href="#m3712e45483" x="118.612665" y="295.484555" style="fill-opacity: 0; stroke: #d62728; stroke-linejoin: bevel"/>
     <use xlink:href="#m3712e45483" x="129.807649" y="295.484555" style="fill-opacity: 0; stroke: #d62728; stroke-linejoin: bevel"/>
     <use xlink:href="#m3712e45483" x="141.002633" y="295.484555" style="fill-opacity: 0; stroke: #d62728; stroke-linejoin: bevel"/>
     <use xlink:href="#m3712e45483" x="152.197618" y="295.484555" style="fill-opacity: 0; stroke: #d62728; stroke-linejoin: bevel"/>
     <use xlink:href="#m3712e45483" x="163.392602" y="295.484555" style="fill-opacity: 0; stroke: #d62728; stroke-linejoin: bevel"/>
     <use xlink:href="#m3712e45483" x="174.587586" y="295.484555" style="fill-opacity: 0; stroke: #d62728; stroke-linejoin: bevel"/>
     <use xlink:href="#m3712e45483" x="185.782571" y="295.484555" style="fill-opacity: 0; stroke: #d62728; stroke-linejoin: bevel"/>
     <use xlink:href="#m3712e45483" x="196.977555" y="295.48748" style="fill-opacity: 0; stroke: #d62728; stroke-linejoin: bevel"/>
     <use xlink:href="#m3712e45483" x="208.172539" y="295.48748" style="fill-opacity: 0; stroke: #d62728; stroke-linejoin: bevel"/>
     <use xlink:href="#m3712e45483" x="219.367524" y="295.48748" style="fill-opacity: 0; stroke: #d62728; stroke-linejoin: bevel"/>
     <use xlink:href="#m3712e45483" x="230.562508" y="295.48748" style="fill-opacity: 0; stroke: #d62728; stroke-linejoin: bevel"/>
     <use xlink:href="#m3712e45483" x="241.757492" y="295.48748" style="fill-opacity: 0; stroke: #d62728; stroke-linejoin: bevel"/>
     <use xlink:href="#m3712e45483" x="252.952476" y="295.48748" style="fill-opacity: 0; stroke: #d62728; stroke-linejoin: bevel"/>
     <use xlink:href="#m3712e45483" x="264.147461" y="295.48748" style="fill-opacity: 0; stroke: #d62728; stroke-linejoin: bevel"/>
     <use xlink:href="#m3712e45483" x="275.342445" y="295.48748" style="fill-opacity: 0; stroke: #d62728; stroke-linejoin: bevel"/>
     <use xlink:href="#m3712e45483" x="286.537429" y="295.487841" style="fill-opacity: 0; stroke: #d62728; stroke-linejoin: bevel"/>
     <use xlink:href="#m3712e45483" x="297.732414" y="295.487841" style="fill-opacity: 0; stroke: #d62728; stroke-linejoin: bevel"/>
     <use xlink:href="#m3712e45483" x="308.927398" y="295.488" style="fill-opacity: 0; stroke: #d62728; stroke-linejoin: bevel"/>
     <use xlink:href="#m3712e45483" x="320.122382" y="295.488" style="fill-opacity: 0; stroke: #d62728; stroke-linejoin: bevel"/>
     <use xlink:href="#m3712e45483" x="331.317367" y="295.488" style="fill-opacity: 0; stroke: #d62728; stroke-linejoin: bevel"/>
     <use xlink:href="#m3712e45483" x="342.512351" y="295.488" style="fill-opacity: 0; stroke: #d62728; stroke-linejoin: bevel"/>
     <use xlink:href="#m3712e45483" x="353.707335" y="295.488" style="fill-opacity: 0; stroke: #d62728; stroke-linejoin: bevel"/>
     <use xlink:href="#m3712e45483" x="364.90232" y="295.488" style="fill-opacity: 0; stroke: #d62728; stroke-linejoin: bevel"/>
     <use xlink:href="#m3712e45483" x="376.097304" y="295.488" style="fill-opacity: 0; stroke: #d62728; stroke-linejoin: bevel"/>
     <use xlink:href="#m3712e45483" x="387.292288" y="295.488" style="fill-opacity: 0; stroke: #d62728; stroke-linejoin: bevel"/>
     <use xlink:href="#m3712e45483" x="398.487273" y="295.488" style="fill-opacity: 0; stroke: #d62728; stroke-linejoin: bevel"/>
    </g>
   </g>
   <g id="line2d_18">
    <path d="M 73.832727 258.837925 
L 85.027712 274.13188 
L 96.222696 274.13188 
L 107.41768 274.13188 
L 118.612665 274.13188 
L 129.807649 274.13188 
L 141.002633 274.13188 
L 152.197618 283.393087 
L 163.392602 283.393087 
L 174.587586 283.393087 
L 185.782571 283.493263 
L 196.977555 294.748574 
L 208.172539 294.748574 
L 219.367524 294.866531 
L 230.562508 295.470906 
L 241.757492 295.470906 
L 252.952476 295.475193 
L 264.147461 295.481796 
L 275.342445 295.487403 
L 286.537429 295.487403 
L 297.732414 295.487937 
L 308.927398 295.48799 
L 320.122382 295.487999 
L 331.317367 295.487999 
L 342.512351 295.488 
L 353.707335 295.488 
L 364.90232 295.488 
L 376.097304 295.488 
L 387.292288 295.488 
L 398.487273 295.488 
" clip-path="url(#p5c066b8918)" style="fill: none; stroke: #9467bd; stroke-width: 1.5; stroke-linecap: square"/>
    <defs>
     <path id="mdf29e2af6e" d="M -3 3 
L 3 -3 
M -3 -3 
L 3 3 
" style="stroke: #9467bd"/>
    </defs>
    <g clip-path="url(#p5c066b8918)">
     <use xlink:href="#mdf29e2af6e" x="73.832727" y="258.837925" style="fill-opacity: 0; stroke: #9467bd"/>
     <use xlink:href="#mdf29e2af6e" x="85.027712" y="274.13188" style="fill-opacity: 0; stroke: #9467bd"/>
     <use xlink:href="#mdf29e2af6e" x="96.222696" y="274.13188" style="fill-opacity: 0; stroke: #9467bd"/>
     <use xlink:href="#mdf29e2af6e" x="107.41768" y="274.13188" style="fill-opacity: 0; stroke: #9467bd"/>
     <use xlink:href="#mdf29e2af6e" x="118.612665" y="274.13188" style="fill-opacity: 0; stroke: #9467bd"/>
     <use xlink:href="#mdf29e2af6e" x="129.807649" y="274.13188" style="fill-opacity: 0; stroke: #9467bd"/>
     <use xlink:href="#mdf29e2af6e" x="141.002633" y="274.13188" style="fill-opacity: 0; stroke: #9467bd"/>
     <use xlink:href="#mdf29e2af6e" x="152.197618" y="283.393087" style="fill-opacity: 0; stroke: #9467bd"/>
     <use xlink:href="#mdf29e2af6e" x="163.392602" y="283.393087" style="fill-opacity: 0; stroke: #9467bd"/>
     <use xlink:href="#mdf29e2af6e" x="174.587586" y="283.393087" style="fill-opacity: 0; stroke: #9467bd"/>
     <use xlink:href="#mdf29e2af6e" x="185.782571" y="283.493263" style="fill-opacity: 0; stroke: #9467bd"/>
     <use xlink:href="#mdf29e2af6e" x="196.977555" y="294.748574" style="fill-opacity: 0; stroke: #9467bd"/>
     <use xlink:href="#mdf29e2af6e" x="208.172539" y="294.748574" style="fill-opacity: 0; stroke: #9467bd"/>
     <use xlink:href="#mdf29e2af6e" x="219.367524" y="294.866531" style="fill-opacity: 0; stroke: #9467bd"/>
     <use xlink:href="#mdf29e2af6e" x="230.562508" y="295.470906" style="fill-opacity: 0; stroke: #9467bd"/>
     <use xlink:href="#mdf29e2af6e" x="241.757492" y="295.470906" style="fill-opacity: 0; stroke: #9467bd"/>
     <use xlink:href="#mdf29e2af6e" x="252.952476" y="295.475193" style="fill-opacity: 0; stroke: #9467bd"/>
     <use xlink:href="#mdf29e2af6e" x="264.147461" y="295.481796" style="fill-opacity: 0; stroke: #9467bd"/>
     <use xlink:href="#mdf29e2af6e" x="275.342445" y="295.487403" style="fill-opacity: 0; stroke: #9467bd"/>
     <use xlink:href="#mdf29e2af6e" x="286.537429" y="295.487403" style="fill-opacity: 0; stroke: #9467bd"/>
     <use xlink:href="#mdf29e2af6e" x="297.732414" y="295.487937" style="fill-opacity: 0; stroke: #9467bd"/>
     <use xlink:href="#mdf29e2af6e" x="308.927398" y="295.48799" style="fill-opacity: 0; stroke: #9467bd"/>
     <use xlink:href="#mdf29e2af6e" x="320.122382" y="295.487999" style="fill-opacity: 0; stroke: #9467bd"/>
     <use xlink:href="#mdf29e2af6e" x="331.317367" y="295.487999" style="fill-opacity: 0; stroke: #9467bd"/>
     <use xlink:href="#mdf29e2af6e" x="342.512351" y="295.488" style="fill-opacity: 0; stroke: #9467bd"/>
     <use xlink:href="#mdf29e2af6e" x="353.707335" y="295.488" style="fill-opacity: 0; stroke: #9467bd"/>
     <use xlink:href="#mdf29e2af6e" x="364.90232" y="295.488" style="fill-opacity: 0; stroke: #9467bd"/>
     <use xlink:href="#mdf29e2af6e" x="376.097304" y="295.488" style="fill-opacity: 0; stroke: #9467bd"/>
     <use xlink:href="#mdf29e2af6e" x="387.292288" y="295.488" style="fill-opacity: 0; stroke: #9467bd"/>
     <use xlink:href="#mdf29e2af6e" x="398.487273" y="295.488" style="fill-opacity: 0; stroke: #9467bd"/>
    </g>
   </g>
   <g id="patch_3">
    <path d="M 57.6 307.584 
L 57.6 41.472 
" style="fill: none; stroke: #000000; stroke-width: 0.8; stroke-linejoin: miter; stroke-linecap: square"/>
   </g>
   <g id="patch_4">
    <path d="M 414.72 307.584 
L 414.72 41.472 
" style="fill: none; stroke: #000000; stroke-width: 0.8; stroke-linejoin: miter; stroke-linecap: square"/>
   </g>
   <g id="patch_5">
    <path d="M 57.6 307.584 
L 414.72 307.584 
" style="fill: none; stroke: #000000; stroke-width: 0.8; stroke-linejoin: miter; stroke-linecap: square"/>
   </g>
   <g id="patch_6">
    <path d="M 57.6 41.472 
L 414.72 41.472 
" style="fill: none; stroke: #000000; stroke-width: 0.8; stroke-linejoin: miter; stroke-linecap: square"/>
   </g>
   <g id="legend_1">
    <g id="patch_7">
     <path d="M 325.72 115.800125 
L 407.72 115.800125 
Q 409.72 115.800125 409.72 113.800125 
L 409.72 48.472 
Q 409.72 46.472 407.72 46.472 
L 325.72 46.472 
Q 323.72 46.472 323.72 48.472 
L 323.72 113.800125 
Q 323.72 115.800125 325.72 115.800125 
z
" style="fill: #ffffff; opacity: 0.8; stroke: #cccccc; stroke-linejoin: miter"/>
    </g>
    <g id="line2d_19">
     <path d="M 327.72 53.972 
L 337.72 53.972 
L 347.72 53.972 
" style="fill: none; stroke: #1f77b4; stroke-width: 1.5; stroke-linecap: square"/>
     <g>
      <use xlink:href="#ma7a93b2643" x="337.72" y="53.972" style="fill-opacity: 0; stroke: #1f77b4"/>
     </g>
    </g>
    <g id="text_16">
     <!-- ssa -->
     <g transform="translate(355.72 57.472) scale(0.1 -0.1)">
      <defs>
       <path id="SimHei-73" d="M 2750 900 
Q 2750 500 2437 287 
Q 2125 75 1650 75 
Q 1050 75 725 312 
Q 400 550 400 1000 
L 900 1000 
Q 900 700 1112 600 
Q 1325 500 1625 500 
Q 1925 500 2075 612 
Q 2225 725 2225 900 
Q 2225 1025 2100 1150 
Q 1975 1275 1475 1350 
Q 900 1425 687 1637 
Q 475 1850 475 2200 
Q 475 2500 762 2737 
Q 1050 2975 1600 2975 
Q 2100 2975 2387 2750 
Q 2675 2525 2675 2150 
L 2175 2150 
Q 2175 2375 2012 2462 
Q 1850 2550 1600 2550 
Q 1275 2550 1137 2437 
Q 1000 2325 1000 2175 
Q 1000 2000 1125 1900 
Q 1250 1800 1650 1750 
Q 2300 1650 2525 1437 
Q 2750 1225 2750 900 
z
" transform="scale(0.015625)"/>
       <path id="SimHei-61" d="M 2875 125 
L 2275 125 
Q 2225 175 2200 262 
Q 2175 350 2175 475 
Q 2000 275 1750 175 
Q 1500 75 1225 75 
Q 825 75 550 275 
Q 275 475 275 850 
Q 275 1225 525 1450 
Q 775 1675 1300 1750 
Q 1650 1800 1912 1875 
Q 2175 1950 2175 2075 
Q 2175 2225 2062 2375 
Q 1950 2525 1575 2525 
Q 1275 2525 1137 2412 
Q 1000 2300 950 2100 
L 400 2100 
Q 450 2500 762 2737 
Q 1075 2975 1575 2975 
Q 2125 2975 2400 2725 
Q 2675 2475 2675 2025 
L 2675 650 
Q 2675 500 2725 375 
Q 2775 250 2875 125 
z
M 2175 1050 
L 2175 1550 
Q 2025 1500 1887 1462 
Q 1750 1425 1425 1375 
Q 1050 1325 937 1200 
Q 825 1075 825 900 
Q 825 750 937 637 
Q 1050 525 1275 525 
Q 1500 525 1762 650 
Q 2025 775 2175 1050 
z
" transform="scale(0.015625)"/>
      </defs>
      <use xlink:href="#SimHei-73"/>
      <use xlink:href="#SimHei-73" x="50"/>
      <use xlink:href="#SimHei-61" x="100"/>
     </g>
    </g>
    <g id="line2d_20">
     <path d="M 327.72 67.222 
L 337.72 67.222 
L 347.72 67.222 
" style="fill: none; stroke: #ff7f0e; stroke-width: 1.5; stroke-linecap: square"/>
     <g>
      <use xlink:href="#md5f0a755c2" x="337.72" y="67.222" style="fill-opacity: 0; stroke: #ff7f0e; stroke-linejoin: miter"/>
     </g>
    </g>
    <g id="text_17">
     <!-- pso -->
     <g transform="translate(355.72 70.722) scale(0.1 -0.1)">
      <defs>
       <path id="SimHei-70" d="M 2825 1525 
Q 2825 800 2475 425 
Q 2125 50 1625 50 
Q 1350 50 1150 162 
Q 950 275 800 500 
L 800 -800 
L 300 -800 
L 300 2925 
L 800 2925 
L 800 2550 
Q 950 2775 1150 2875 
Q 1350 2975 1625 2975 
Q 2125 2975 2475 2612 
Q 2825 2250 2825 1525 
z
M 2275 1525 
Q 2275 2000 2087 2262 
Q 1900 2525 1525 2525 
Q 1225 2525 1012 2262 
Q 800 2000 800 1525 
Q 800 1050 1012 775 
Q 1225 500 1525 500 
Q 1900 500 2087 775 
Q 2275 1050 2275 1525 
z
" transform="scale(0.015625)"/>
       <path id="SimHei-6f" d="M 2925 1525 
Q 2925 875 2525 475 
Q 2125 75 1575 75 
Q 1025 75 625 475 
Q 225 875 225 1525 
Q 225 2175 625 2575 
Q 1025 2975 1575 2975 
Q 2125 2975 2525 2575 
Q 2925 2175 2925 1525 
z
M 2375 1525 
Q 2375 2025 2125 2275 
Q 1875 2525 1575 2525 
Q 1275 2525 1025 2275 
Q 775 2025 775 1525 
Q 775 1025 1025 775 
Q 1275 525 1575 525 
Q 1875 525 2125 775 
Q 2375 1025 2375 1525 
z
" transform="scale(0.015625)"/>
      </defs>
      <use xlink:href="#SimHei-70"/>
      <use xlink:href="#SimHei-73" x="50"/>
      <use xlink:href="#SimHei-6f" x="100"/>
     </g>
    </g>
    <g id="line2d_21">
     <path d="M 327.72 80.472 
L 337.72 80.472 
L 347.72 80.472 
" style="fill: none; stroke: #2ca02c; stroke-width: 1.5; stroke-linecap: square"/>
     <g>
      <use xlink:href="#mf0c4237edb" x="337.72" y="80.472" style="fill-opacity: 0; stroke: #2ca02c; stroke-linejoin: miter"/>
     </g>
    </g>
    <g id="text_18">
     <!-- so -->
     <g transform="translate(355.72 83.972) scale(0.1 -0.1)">
      <use xlink:href="#SimHei-73"/>
      <use xlink:href="#SimHei-6f" x="50"/>
     </g>
    </g>
    <g id="line2d_22">
     <path d="M 327.72 93.722 
L 337.72 93.722 
L 347.72 93.722 
" style="fill: none; stroke: #d62728; stroke-width: 1.5; stroke-linecap: square"/>
     <g>
      <use xlink:href="#m3712e45483" x="337.72" y="93.722" style="fill-opacity: 0; stroke: #d62728; stroke-linejoin: bevel"/>
     </g>
    </g>
    <g id="text_19">
     <!-- sparrow_sa -->
     <g transform="translate(355.72 97.222) scale(0.1 -0.1)">
      <defs>
       <path id="SimHei-72" d="M 2500 2425 
Q 2025 2500 1700 2287 
Q 1375 2075 1150 1550 
L 1150 125 
L 650 125 
L 650 2925 
L 1150 2925 
L 1150 2200 
Q 1375 2600 1712 2787 
Q 2050 2975 2500 2975 
L 2500 2425 
z
" transform="scale(0.015625)"/>
       <path id="SimHei-77" d="M 3075 2925 
L 2450 75 
L 1975 75 
L 1575 2250 
L 1525 2250 
L 1125 75 
L 650 75 
L 25 2925 
L 550 2925 
L 875 1050 
L 925 1050 
L 1275 2925 
L 1825 2925 
L 2175 1050 
L 2225 1050 
L 2550 2925 
L 3075 2925 
z
" transform="scale(0.015625)"/>
       <path id="SimHei-5f" d="M 3150 -850 
L 0 -850 
L 0 -550 
L 3150 -550 
L 3150 -850 
z
" transform="scale(0.015625)"/>
      </defs>
      <use xlink:href="#SimHei-73"/>
      <use xlink:href="#SimHei-70" x="50"/>
      <use xlink:href="#SimHei-61" x="100"/>
      <use xlink:href="#SimHei-72" x="150"/>
      <use xlink:href="#SimHei-72" x="200"/>
      <use xlink:href="#SimHei-6f" x="250"/>
      <use xlink:href="#SimHei-77" x="300"/>
      <use xlink:href="#SimHei-5f" x="350"/>
      <use xlink:href="#SimHei-73" x="400"/>
      <use xlink:href="#SimHei-61" x="450"/>
     </g>
    </g>
    <g id="line2d_23">
     <path d="M 327.72 107.050125 
L 337.72 107.050125 
L 347.72 107.050125 
" style="fill: none; stroke: #9467bd; stroke-width: 1.5; stroke-linecap: square"/>
     <g>
      <use xlink:href="#mdf29e2af6e" x="337.72" y="107.050125" style="fill-opacity: 0; stroke: #9467bd"/>
     </g>
    </g>
    <g id="text_20">
     <!-- ssa -->
     <g transform="translate(355.72 110.550125) scale(0.1 -0.1)">
      <use xlink:href="#SimHei-73"/>
      <use xlink:href="#SimHei-73" x="50"/>
      <use xlink:href="#SimHei-61" x="100"/>
     </g>
    </g>
   </g>
  </g>
 </g>
 <defs>
  <clipPath id="p5c066b8918">
   <rect x="57.6" y="41.472" width="357.12" height="266.112"/>
  </clipPath>
 </defs>
</svg>
